<svg width="22" height="22" viewBox="0 0 22 22" fill="none" xmlns="http://www.w3.org/2000/svg">
<circle cx="11" cy="11" r="11" fill="white"/>
<path fill-rule="evenodd" clip-rule="evenodd" d="M11 0C17.0751 0 22 4.92487 22 11C22 17.0751 17.0751 22 11 22C4.92487 22 0 17.0751 0 11C0 4.92487 4.92487 0 11 0ZM7.48282 5.55343C6.94342 5.13402 6.16348 5.17214 5.66781 5.66781C5.13084 6.20478 5.13084 7.07538 5.66781 7.61235L9.05458 10.9988L5.66781 14.3876L5.55343 14.5172C5.13402 15.0566 5.17214 15.8365 5.66781 16.3322C6.20478 16.8692 7.07538 16.8692 7.61235 16.3322L10.9988 12.9445L14.3876 16.3322L14.5172 16.4466C15.0566 16.866 15.8365 16.8279 16.3322 16.3322C16.8692 15.7952 16.8692 14.9246 16.3322 14.3876L12.9445 10.9988L16.3322 7.61235L16.4466 7.48282C16.866 6.94342 16.8279 6.16348 16.3322 5.66781C15.7952 5.13084 14.9246 5.13084 14.3876 5.66781L10.9988 9.05458L7.61235 5.66781L7.48282 5.55343Z" fill="#FF0000"/>
</svg>
