<svg xmlns="http://www.w3.org/2000/svg" viewBox="0 0 1014.01 292.45"><g id="Layer_2" data-name="Layer 2"><g id="Layer_1-2" data-name="Layer 1"><path d="M382.66 111.32c.72 2.51-.18 4-2.16 4.67l-19.41 5.75c-2.34.72-3.6 0-4.32-2.33-3-9.89-9.52-15.28-21.39-15.28-18.33 0-24.44 10.78-24.44 25.34v33.44c0 14.56 6.11 25.34 24.44 25.34 15.1 0 23-7 23-22.29v-4.31h-20.12c-1.62 0-2.7-.9-2.7-2.88v-18.51a2.6 2.6 0 0 1 2.7-2.88h43.86c1.8 0 2.88.9 2.88 2.7v27.68c0 26.42-19.42 46.38-49.62 46.38-35.77 0-52.48-21.21-52.48-50.33v-35.24c0-29.12 16.71-50.33 52.48-50.33 28.94 0 42.07 16.54 47.28 33.08zm98.48 33.07v64.89a2.55 2.55 0 0 1-2.69 2.7h-19.78a2.6 2.6 0 0 1-2.87-2.7v-10.6A31.27 31.27 0 0 1 428.47 214c-18.69 0-30.73-12.05-30.73-30.56 0-18 11.32-28.76 39-30.74a119.92 119.92 0 0 1 18-.18v-7.19c0-9.71-5-13.48-13.66-13.48-8.81 0-11.33 3.59-13.66 9.17-.9 2.15-1.62 2.51-3.6 2l-19.77-5c-2-.54-2.16-1.62-1.8-3.06 2.7-14.2 16.18-24.62 39.91-24.62 24.96-.1 38.98 11.76 38.98 34.05zm-26.42 34V169a113.24 113.24 0 0 0-15.82.54c-10.07 1.26-15.46 4.31-15.46 12 0 7 4.67 10.79 12.4 10.79 8.81.06 15.64-4.8 18.88-13.96zm97.81-68.15c12.58 0 20.85 7.37 24.62 18 7.37-10.78 16.36-18 28.94-18 17.44 0 27.33 13.84 27.33 34.51v64.53c0 1.62-1.44 2.7-3.24 2.7h-20.67c-1.8 0-3.24-1.08-3.24-2.7v-59.86c0-9-3.95-14.38-11-14.38-7.37 0-12.76 6.12-15.46 15.46v58.78a2.51 2.51 0 0 1-2.52 2.7H555c-1.61 0-2.33-1.08-2.33-2.7v-59.86c0-9-4-14.38-11-14.38-7.55 0-12.94 6.48-15.46 15.64v58.6a2.46 2.46 0 0 1-2.69 2.7h-21.86a2.46 2.46 0 0 1-2.7-2.7v-94.37a2.5 2.5 0 0 1 2.7-2.51h21a2.49 2.49 0 0 1 2.69 2.51v11.33c5.97-8.24 14.59-16 27.18-16zm194 2.16c.54 2.33-.18 4.13-2.33 4.67l-19.06 5.57c-2.34.72-3.59-.18-4.31-2.34-2.7-9-7.37-16.17-20.67-16.17-16.36 0-21.58 10.78-21.58 25.34v33.44c0 14.56 5.94 25.34 21.58 25.34 14 0 19.41-7.91 21.57-17.79.54-2.16 2-3.24 4.31-2.34l19.05 6.11c2.16.72 2.88 2.34 2.34 4.67-4.49 19.42-18.51 35.24-47.63 35.24-32.72 0-49.26-21.21-49.26-50.33v-35.24c0-29.12 16.9-50.33 49.26-50.33 28.4 0 41.7 15.1 46.73 34.16zm95.69 31.99v64.89a2.55 2.55 0 0 1-2.69 2.7h-19.78a2.6 2.6 0 0 1-2.87-2.7v-10.6A31.25 31.25 0 0 1 789.55 214c-18.69 0-30.73-12.05-30.73-30.56 0-18 11.32-28.76 39-30.74a119.93 119.93 0 0 1 18-.18v-7.19c0-9.71-5-13.48-13.66-13.48-8.81 0-11.33 3.59-13.66 9.17-.9 2.15-1.62 2.51-3.6 2l-19.77-5c-2-.54-2.16-1.62-1.8-3.06 2.7-14.2 16.18-24.62 39.91-24.62 24.96-.1 38.98 11.76 38.98 34.05zm-26.42 34V169a113.24 113.24 0 0 0-15.82.54c-10.07 1.26-15.46 4.31-15.46 12 0 7 4.68 10.79 12.4 10.79 8.81.06 15.64-4.8 18.88-13.96zm103.39-64.2v19.24c0 2.33-.9 3.23-3.24 3.23h-2.88c-14.38 0-22.82 6.47-25.7 17.26v55.36A2.48 2.48 0 0 1 885 212h-22.62a2.47 2.47 0 0 1-2.33-2.7v-94.39a2.4 2.4 0 0 1 2.69-2.51h20.49c2.16 0 2.7 1.43 2.7 2.87v13.3c4.67-8.8 13.48-17.43 28.94-17.43 3.6 0 4.32.54 4.32 3.05zm35.32 56.27v3.77c0 10.43 5.4 17.8 18.16 17.8 12.4 0 15.82-4.68 19.05-10.61 1.62-2.7 2.34-3 5.21-1.8l14.21 7.19c2.87 1.44 3.05 2.88 1.79 5.58-6.11 13.84-21.39 21.75-40.44 21.75-28.76 0-43.86-17.08-43.86-40.45v-23c0-22.65 14.2-40.44 43.68-40.44 28 0 41.7 17.79 41.7 39.9V166c0 2.7-.9 4.5-4.67 4.5zm0-21v3.42h34.7v-3.42c0-9.7-5.4-17.25-17.26-17.25s-17.44 7.51-17.44 17.21z" fill="#1a1a1a"/><path d="M124.28 0H3.65A3.66 3.66 0 0 0 0 3.65v175.46a113.33 113.33 0 0 0 113.33 113.34h11a113.33 113.33 0 0 0 113.28-113.34v-65.78A113.33 113.33 0 0 0 124.28 0zm76.94 181c0 42.67-31.35 74.89-80.11 74.89-57.77 0-84.76-34.25-84.76-81.28v-56.89c0-47 27-81.28 84.76-81.28 46.73 0 67.92 26.71 76.34 53.41 1.16 4.07-.29 6.39-3.48 7.55l-31.35 9.29c-3.78 1.16-5.81 0-7-3.77-4.94-16-15.39-24.68-34.54-24.68-29.61 0-39.48 17.42-39.48 40.93v54c0 23.51 9.87 40.93 39.48 40.93 24.38 0 37.15-11.32 37.15-36v-7h-32.48c-2.61 0-4.35-1.45-4.35-4.64v-29.9c0-2.91 1.74-4.65 4.35-4.65h70.83c2.9 0 4.64 1.45 4.64 4.36z" fill="#2e008b"/></g></g></svg>